<svg width="1793" height="393" viewBox="0 0 1793 393" fill="none" xmlns="http://www.w3.org/2000/svg">
<g clip-path="url(#clip0_59_81)">
<path d="M590.95 354.73C603.24 354.73 611.79 345.73 616.6 327.74C601.81 327.74 589.48 323.29 579.6 314.38C569.71 305.48 561.21 289.62 554.08 266.82L534.58 203.77C533.87 201.81 534.18 200.03 535.52 198.43C536.86 196.83 538.59 196.02 540.73 196.02H567.98C570.47 196.02 572.88 196.87 575.19 198.56C577.5 200.25 579.02 202.35 579.73 204.84L596.83 260.15C601.1 273.69 605.42 283.09 609.79 288.34C614.15 293.6 619.36 296.22 625.42 296.22L651.34 204.84C652.05 202.35 653.43 200.26 655.48 198.56C657.53 196.87 659.8 196.02 662.29 196.02H689.81C691.95 196.02 693.64 196.82 694.89 198.43C696.13 200.03 696.49 201.82 695.96 203.77L661.76 325.6C655.7 347.15 648.18 362.56 639.18 371.82C630.18 381.08 618.11 385.71 602.98 385.71C589.8 385.71 578.49 384.82 569.05 383.04C566.73 382.68 564.82 381.75 563.31 380.23C561.79 378.71 561.04 376.98 561.04 375.02V360.59C561.04 358.27 561.8 356.36 563.31 354.85C564.82 353.33 566.74 352.58 569.05 352.58H573.86C575.82 352.58 578.62 352.94 582.28 353.65C585.92 354.38 588.81 354.73 590.95 354.73Z" fill="black"/>
<path fill-rule="evenodd" clip-rule="evenodd" d="M801.75 193.36C821.34 193.36 837.24 199.77 849.44 212.6C861.64 225.43 867.74 243.68 867.74 267.37C867.74 291.42 861.42 309.81 848.77 322.54C836.12 335.28 819.11 341.64 797.74 341.64C786.69 341.64 774.14 339.41 760.07 334.96V375.04C760.07 377.35 759.31 379.27 757.8 380.78C756.28 382.29 754.37 383.05 752.05 383.05H722.93C720.61 383.05 718.7 382.29 717.18 380.78C715.67 379.27 714.91 377.35 714.91 375.04V204.04C714.91 201.73 715.67 199.81 717.18 198.3C718.69 196.79 720.61 196.03 722.93 196.03H748.04C750.35 196.03 752.27 196.79 753.79 198.3C755.3 199.82 756.06 201.73 756.06 204.04V208.05C769.78 198.26 785.01 193.36 801.75 193.36ZM791.07 224.89C782.87 224.89 772.54 228.81 760.08 236.65V304.78C771.3 308.35 780.74 310.12 788.4 310.12C800.33 310.12 808.79 306.74 813.78 299.97C818.77 293.2 821.26 282.34 821.26 267.37C821.26 252.59 818.9 241.81 814.18 235.04C809.46 228.27 801.75 224.89 791.07 224.89Z" fill="black"/>
<path d="M964.46 224.89C951.99 224.89 943.17 228.23 938.01 234.91C932.84 241.59 930.26 252.5 930.26 267.64C930.26 282.6 932.93 293.42 938.28 300.1C943.63 306.78 952.8 310.12 965.8 310.12C979.34 310.12 988.69 306.02 993.85 297.83C997.94 291.42 1002.93 288.21 1008.81 288.21H1028.31C1030.62 288.21 1032.54 288.97 1034.05 290.48C1035.56 292 1036.32 293.91 1036.32 296.22C1036.32 311.18 1029.86 322.5 1016.95 330.15C1004.03 337.81 985.91 341.64 962.58 341.64C937.11 341.64 917.6 335.36 904.07 322.8C890.53 310.24 883.76 291.85 883.76 267.63C883.76 243.23 890.48 224.75 903.93 212.19C917.38 199.63 936.48 193.35 961.24 193.35C984.57 193.35 1002.7 197.18 1015.61 204.84C1028.52 212.5 1034.98 223.81 1034.98 238.77C1034.98 241.09 1034.22 243 1032.71 244.52C1031.2 246.03 1029.28 246.79 1026.97 246.79H1007.47C1001.59 246.79 996.6 243.58 992.51 237.17C987.35 228.98 978 224.89 964.46 224.89Z" fill="black"/>
<path fill-rule="evenodd" clip-rule="evenodd" d="M1127.97 223.01C1115.86 223.01 1107.4 225.95 1102.59 231.83C1098.85 236.46 1093.86 238.78 1087.63 238.78H1068.13C1065.81 238.78 1063.9 238.03 1062.38 236.51C1060.86 235 1060.11 233.08 1060.11 230.77C1060.11 205.83 1083.8 193.36 1131.18 193.36C1151.84 193.36 1168.45 197.99 1181.01 207.25C1193.57 216.51 1199.85 230.85 1199.85 250.27V330.96C1199.85 333.28 1199.09 335.19 1197.58 336.7C1196.06 338.22 1194.15 338.97 1191.83 338.97H1166.72C1164.4 338.97 1162.49 338.21 1160.97 336.7C1159.46 335.19 1158.7 333.27 1158.7 330.96V326.95C1144.98 336.75 1129.22 341.65 1111.41 341.65C1093.24 341.65 1078.41 337.64 1066.92 329.63C1055.43 321.61 1049.69 310.31 1049.69 295.7C1049.69 281.1 1055.43 269.87 1066.92 262.03C1078.41 254.19 1093.24 250.27 1111.41 250.27H1154.69C1154.69 240.12 1152.55 233.04 1148.28 229.03C1144.01 225.02 1137.23 223.01 1127.97 223.01ZM1115.95 311.99C1129.31 311.99 1142.22 308.07 1154.69 300.23V279.92H1114.61C1108.55 279.92 1103.74 281.39 1100.18 284.33C1096.61 287.27 1094.84 291.06 1094.84 295.69C1094.84 300.5 1096.66 304.42 1100.32 307.45C1103.97 310.48 1109.18 311.99 1115.95 311.99Z" fill="black"/>
<path d="M1277.6 207.52L1299.24 240.38L1320.88 207.52C1326.04 199.86 1332.81 196.03 1341.19 196.03H1369.51C1371.47 196.03 1372.98 196.66 1374.05 197.9C1375.12 199.15 1375.61 200.62 1375.52 202.31C1375.43 204 1374.76 205.74 1373.52 207.52L1331.04 267.37L1376.46 327.49C1378.42 329.81 1379 332.3 1378.2 334.97C1377.4 337.64 1375.48 338.98 1372.46 338.98H1344.67C1336.65 338.98 1329.88 335.15 1324.36 327.49L1299.24 293.56L1274.12 327.49C1268.6 335.15 1261.83 338.98 1253.81 338.98H1226.02C1222.99 338.98 1221.08 337.64 1220.28 334.97C1219.48 332.3 1220.05 329.81 1222.02 327.49L1267.44 267.37L1224.96 207.52C1223.71 205.74 1223.04 204 1222.96 202.31C1222.87 200.62 1223.36 199.15 1224.43 197.9C1225.5 196.66 1227.01 196.03 1228.97 196.03H1257.29C1265.66 196.03 1272.43 199.86 1277.6 207.52Z" fill="black"/>
<path d="M1393.28 322.67V314.39C1393.28 308.69 1394.79 304.33 1397.82 301.3C1400.85 298.27 1405.21 296.76 1410.91 296.76H1426.94C1432.64 296.76 1437 298.28 1440.03 301.3C1443.06 304.33 1444.57 308.69 1444.57 314.39V322.67C1444.57 328.19 1443.05 332.51 1440.03 335.63C1437 338.75 1432.64 340.31 1426.94 340.31H1410.91C1405.21 340.31 1400.84 338.75 1397.82 335.63C1394.79 332.52 1393.28 328.2 1393.28 322.67Z" fill="#FFD201"/>
<path fill-rule="evenodd" clip-rule="evenodd" d="M1558.13 193.36C1577.72 193.36 1593.62 199.77 1605.82 212.6C1618.02 225.43 1624.12 243.68 1624.12 267.37C1624.12 291.42 1617.8 309.81 1605.15 322.54C1592.5 335.28 1575.49 341.64 1554.12 341.64C1543.07 341.64 1530.52 339.41 1516.45 334.96V375.04C1516.45 377.35 1515.69 379.27 1514.18 380.78C1512.66 382.29 1510.75 383.05 1508.43 383.05H1479.31C1476.99 383.05 1475.08 382.29 1473.56 380.78C1472.05 379.27 1471.29 377.35 1471.29 375.04V204.04C1471.29 201.73 1472.05 199.81 1473.56 198.3C1475.07 196.79 1476.99 196.03 1479.31 196.03H1504.42C1506.73 196.03 1508.65 196.79 1510.17 198.3C1511.68 199.82 1512.44 201.73 1512.44 204.04V208.05C1526.16 198.26 1541.39 193.36 1558.13 193.36ZM1547.44 224.89C1539.24 224.89 1528.91 228.81 1516.45 236.65V304.78C1527.67 308.35 1537.11 310.12 1544.77 310.12C1556.7 310.12 1565.16 306.74 1570.15 299.97C1575.14 293.2 1577.63 282.34 1577.63 267.37C1577.63 252.59 1575.27 241.81 1570.55 235.04C1565.83 228.27 1558.13 224.89 1547.44 224.89Z" fill="#FFD201"/>
<path d="M1687.71 354.73C1700 354.73 1708.55 345.73 1713.36 327.74C1698.57 327.74 1686.24 323.29 1676.36 314.38C1666.47 305.48 1657.97 289.62 1650.84 266.82L1631.34 203.77C1630.63 201.81 1630.94 200.03 1632.27 198.43C1633.61 196.83 1635.34 196.02 1637.48 196.02H1664.73C1667.22 196.02 1669.63 196.87 1671.94 198.56C1674.25 200.25 1675.77 202.35 1676.48 204.84L1693.58 260.15C1697.86 273.69 1702.17 283.09 1706.54 288.34C1710.9 293.6 1716.11 296.22 1722.17 296.22L1748.09 204.84C1748.8 202.35 1750.18 200.26 1752.23 198.56C1754.28 196.87 1756.55 196.02 1759.04 196.02H1786.56C1788.7 196.02 1790.39 196.82 1791.64 198.43C1792.88 200.03 1793.24 201.82 1792.71 203.77L1758.51 325.6C1752.45 347.15 1744.93 362.56 1735.93 371.82C1726.93 381.08 1714.86 385.71 1699.73 385.71C1686.55 385.71 1675.24 384.82 1665.8 383.04C1663.48 382.68 1661.57 381.75 1660.06 380.23C1658.54 378.71 1657.79 376.98 1657.79 375.02V360.59C1657.79 358.27 1658.54 356.36 1660.06 354.85C1661.57 353.33 1663.49 352.58 1665.8 352.58H1670.61C1672.57 352.58 1675.37 352.94 1679.03 353.65C1682.68 354.38 1685.57 354.73 1687.71 354.73Z" fill="#FFD201"/>
<path fill-rule="evenodd" clip-rule="evenodd" d="M87.7598 139.08V57.5501C87.7598 54.7301 89.8398 52.3601 92.6498 52.0001L134.76 46.6601L226.7 7.64014L453.64 103.99L328.15 136.54V114.69L326.45 110C322.28 105.05 317.52 100.46 312.39 96.2801C288.55 76.9901 256.5 67.7601 224.97 68.0601C193.39 68.4001 162.03 78.3101 139.65 97.1901C135.04 101.08 130.75 105.43 126.92 110.17L125.29 114.7V136.55L98.9398 129.72V139.11C101.52 140.9 103.22 143.86 103.22 147.23C103.22 150.86 101.22 154 98.3098 155.73C99.8198 156.46 101.28 157.55 102.59 158.97L105.99 191.05C102.5 193.83 98.1098 195.5 93.3198 195.5C88.5198 195.5 84.1598 193.84 80.6498 191.05L84.0498 158.97C85.3598 157.55 86.8098 156.47 88.3198 155.73C85.3998 154.01 83.4398 150.87 83.4398 147.23C83.4398 143.83 85.1698 140.86 87.7598 139.08ZM140.35 116.8C178.43 69.8401 271.46 67.5101 313.04 116.8C313.04 130.35 313.04 143.91 313.04 157.46C301.96 149.67 273.13 131.59 232.13 130.33C184.34 128.86 150.72 151.17 140.29 158.72L140.35 116.8ZM-0.220215 103.98L76.5698 71.3801V123.9L-0.220215 103.98Z" fill="black"/>
<path d="M511.87 208.55L494.72 244.75C491.82 250.74 487.82 255.91 482.74 260.26C477.66 264.61 472.21 267.43 466.41 268.7C477.3 271.97 486.73 279.95 494.72 292.65L517.31 329.12C519.49 332.75 520.12 335.75 519.22 338.1C518.31 340.46 516.13 341.64 512.69 341.64H487.65C479.12 341.64 472.32 337.47 467.24 329.12L450.36 301.63C443.1 289.84 432.57 283.94 418.79 283.94V333.48C418.79 335.84 418.02 337.79 416.48 339.33C414.94 340.87 412.98 341.64 410.63 341.64H380.96C378.6 341.64 376.65 340.87 375.11 339.33C373.57 337.79 372.8 335.84 372.8 333.48V204.19C372.8 201.83 373.57 199.88 375.11 198.34C376.65 196.8 378.6 196.03 380.96 196.03H410.63C412.99 196.03 414.94 196.8 416.48 198.34C418.02 199.88 418.79 201.84 418.79 204.19V253.73C434.21 253.73 444.74 247.74 450.36 235.77L463.15 208.55C464.96 204.74 467.59 201.7 471.04 199.43C474.48 197.16 478.21 196.03 482.2 196.03H507.24C514.14 196.03 515.68 200.2 511.87 208.55Z" fill="black"/>
<path fill-rule="evenodd" clip-rule="evenodd" d="M226.86 384.43C211.22 384.43 196.38 382.07 182.35 377.36C168.32 372.65 155.46 365.63 143.79 356.31C132.11 346.99 122.79 334.35 115.83 318.39C108.87 302.43 105.39 284.16 105.39 263.6C105.39 243.03 108.87 224.77 115.83 208.81C122.79 192.85 132.11 180.21 143.79 170.89C155.46 161.57 168.32 154.56 182.35 149.84C196.38 145.13 211.22 142.77 226.86 142.77C242.29 142.77 257.01 145.13 271.05 149.84C285.08 154.56 297.99 161.57 309.77 170.89C321.55 180.21 330.93 192.85 337.89 208.81C344.85 224.77 348.33 243.04 348.33 263.6C348.33 284.17 344.85 302.44 337.89 318.39C330.93 334.35 321.55 346.99 309.77 356.31C297.98 365.63 285.07 372.65 271.05 377.36C257.01 382.07 242.29 384.43 226.86 384.43ZM181.71 316.94C193.17 330.65 208.22 337.51 226.86 337.51C245.5 337.51 260.49 330.66 271.85 316.94C283.2 303.23 288.88 285.45 288.88 263.59C288.88 241.74 283.2 223.96 271.85 210.24C260.49 196.53 245.5 189.67 226.86 189.67C208.22 189.67 193.17 196.53 181.71 210.24C170.25 223.95 164.52 241.73 164.52 263.59C164.52 285.45 170.24 303.23 181.71 316.94Z" fill="#FFD201"/>
</g>
<defs>
<clipPath id="clip0_59_81">
<rect width="1793" height="393" fill="white"/>
</clipPath>
</defs>
</svg>
