<svg width="555" height="131" viewBox="0 0 555 131" fill="none" xmlns="http://www.w3.org/2000/svg">
<path d="M47.5417 78.9147L51.9833 98.5192C49.7186 99.4766 47.2803 100.391 44.6683 101.264C42.1432 102.048 39.5313 102.658 36.8325 103.094C34.2206 103.53 31.652 103.748 29.1269 103.748C25.3826 103.748 21.9431 103.138 18.8083 101.918C15.6736 100.61 13.1485 98.5182 11.2329 95.6441C9.40417 92.6812 8.48979 88.7165 8.48979 83.75V52.2542H0V33.5647H8.48979V12H33.3052V33.5647H46.7604V52.2542H33.3052V74.9944C33.3052 77.2605 33.7846 78.8722 34.7433 79.8296C35.7001 80.7002 37.0061 81.1354 38.6612 81.1354C39.8804 81.1354 41.2732 80.9183 42.8396 80.484C44.4079 80.0478 45.9753 79.5247 47.5417 78.9147ZM58.384 78.7844V33.5647H83.1994V73.1645C83.1994 76.1274 83.8524 78.4804 85.1583 80.2234C86.5531 81.8776 88.4252 82.7047 90.7748 82.7047C92.0808 82.7047 93.3867 82.531 94.6927 82.1836C96.0006 81.8342 97.3076 81.1364 98.6135 80.0902C100.006 79.046 101.356 77.5655 102.662 75.6487V33.5647H127.477V74.8641C127.477 77.2171 127.825 78.8722 128.522 79.8296C129.22 80.7002 130.439 81.2233 132.179 81.3989V102.309C130.003 102.745 128.044 103.094 126.302 103.354C124.56 103.528 123.036 103.615 121.73 103.615C117.552 103.615 114.244 102.831 111.805 101.264C109.367 99.6947 107.8 97.2983 107.103 94.0748L106.58 91.5935C103.358 95.8613 99.4835 98.9535 94.956 100.87C90.5153 102.7 85.4651 103.615 79.8052 103.615C72.9262 103.615 67.6145 101.481 63.8702 97.2134C60.2127 92.9437 58.384 86.8007 58.384 78.7844ZM185.601 78.9147L190.042 98.5192C187.778 99.4766 185.339 100.391 182.727 101.264C180.202 102.048 177.59 102.658 174.891 103.094C172.279 103.53 169.711 103.748 167.186 103.748C163.442 103.748 160.002 103.138 156.867 101.918C153.733 100.61 151.207 98.5182 149.292 95.6441C147.463 92.6812 146.549 88.7165 146.549 83.75V52.2542H138.059V33.5647H146.549V12H171.364V33.5647H184.816V52.2542H171.364V74.9944C171.364 77.2605 171.844 78.8722 172.802 79.8296C173.759 80.7002 175.065 81.1354 176.72 81.1354C177.939 81.1354 179.332 80.9183 180.899 80.484C182.467 80.0478 184.034 79.5247 185.601 78.9147ZM230.142 103.615C224.046 103.615 218.646 102.657 213.943 100.74C209.242 98.8232 205.281 96.2097 202.059 92.8993C198.925 89.5021 196.53 85.6686 194.875 81.3989C193.308 77.1292 192.525 72.6414 192.525 67.9355C192.525 63.2315 193.308 58.7447 194.875 54.475C196.53 50.1184 198.925 46.2849 202.059 42.9746C205.281 39.6642 209.242 37.0507 213.943 35.1339C218.646 33.2172 224.046 32.2588 230.142 32.2588C236.322 32.2588 241.721 33.2172 246.337 35.1339C251.038 37.0507 254.956 39.6642 258.091 42.9746C261.312 46.2849 263.707 50.1184 265.276 54.475C266.931 58.7447 267.758 63.2315 267.758 67.9355C267.758 72.6414 266.931 77.1292 265.276 81.3989C263.707 85.6686 261.312 89.5021 258.091 92.8993C254.956 96.2097 251.038 98.8232 246.337 100.74C241.721 102.657 236.322 103.615 230.142 103.615ZM217.994 67.9355C217.994 70.9853 218.516 73.6432 219.56 75.9093C220.605 78.0866 222.042 79.7852 223.871 81.0052C225.7 82.1382 227.79 82.7047 230.142 82.7047C232.491 82.7047 234.58 82.1382 236.409 81.0052C238.238 79.7852 239.675 78.0866 240.721 75.9093C241.764 73.6432 242.286 70.9853 242.286 67.9355C242.286 64.8876 241.764 62.2741 240.721 60.0949C239.675 57.8307 238.238 56.1321 236.409 54.999C234.58 53.7791 232.491 53.1692 230.142 53.1692C227.79 53.1692 225.7 53.7791 223.871 54.999C222.042 56.1321 220.605 57.8307 219.56 60.0949C218.516 62.2741 217.994 64.8876 217.994 67.9355ZM323.136 32.3891V54.7355C318.348 54.7355 313.995 55.2586 310.077 56.3048C306.157 57.351 303.24 59.094 301.324 61.5339V102.309H276.509V33.5647H299.235V46.6343C301.673 42.0153 304.721 38.4868 308.379 36.0489C312.036 33.5222 315.911 32.2588 320.002 32.2588C320.961 32.2588 321.614 32.2588 321.961 32.2588C322.397 32.2588 322.789 32.3023 323.136 32.3891ZM374.598 78.9147L379.04 98.5192C376.775 99.4766 374.337 100.391 371.725 101.264C369.2 102.048 366.588 102.658 363.889 103.094C361.277 103.53 358.709 103.748 356.184 103.748C352.439 103.748 349 103.138 345.865 101.918C342.73 100.61 340.205 98.5182 338.29 95.6441C336.461 92.6812 335.546 88.7165 335.546 83.75V52.2542H327.057V33.5647H335.546V12H360.362V33.5647H373.814V52.2542H360.362V74.9944C360.362 77.2605 360.841 78.8722 361.8 79.8296C362.757 80.7002 364.063 81.1354 365.718 81.1354C366.937 81.1354 368.33 80.9183 369.896 80.484C371.465 80.0478 373.032 79.5247 374.598 78.9147ZM419.136 103.615C413.043 103.615 407.644 102.657 402.941 100.74C398.24 98.8232 394.279 96.2097 391.057 92.8993C387.922 89.5021 385.527 85.6686 383.872 81.3989C382.304 77.1292 381.52 72.6414 381.52 67.9355C381.52 63.2315 382.304 58.7447 383.872 54.475C385.527 50.1184 387.922 46.2849 391.057 42.9746C394.279 39.6642 398.24 37.0507 402.941 35.1339C407.644 33.2172 413.043 32.2588 419.136 32.2588C425.319 32.2588 430.719 33.2172 435.335 35.1339C440.036 37.0507 443.954 39.6642 447.089 42.9746C450.31 46.2849 452.705 50.1184 454.273 54.475C455.927 58.7447 456.753 63.2315 456.753 67.9355C456.753 72.6414 455.927 77.1292 454.273 81.3989C452.705 85.6686 450.31 89.5021 447.089 92.8993C443.954 96.2097 440.036 98.8232 435.335 100.74C430.719 102.657 425.319 103.615 419.136 103.615ZM406.992 67.9355C406.992 70.9853 407.514 73.6432 408.557 75.9093C409.603 78.0866 411.04 79.7852 412.869 81.0052C414.698 82.1382 416.787 82.7047 419.136 82.7047C421.488 82.7047 423.578 82.1382 425.407 81.0052C427.236 79.7852 428.673 78.0866 429.718 75.9093C430.762 73.6432 431.284 70.9853 431.284 67.9355C431.284 64.8876 430.762 62.2741 429.718 60.0949C428.673 57.8307 427.236 56.1321 425.407 54.999C423.578 53.7791 421.488 53.1692 419.136 53.1692C416.787 53.1692 414.698 53.7791 412.869 54.999C411.04 56.1321 409.603 57.8307 408.557 60.0949C407.514 62.2741 406.992 64.8876 406.992 67.9355ZM511.743 103.615C506.779 103.615 502.469 102.657 498.811 100.74C495.154 98.7364 492.324 95.8613 490.322 92.1147V130.148H465.506V33.5647H487.058V43.8895C489.496 40.1429 492.5 37.2678 496.068 35.2642C499.726 33.2606 504.123 32.2588 509.26 32.2588C513.876 32.2588 518.1 33.1294 521.931 34.8705C525.762 36.6135 529.114 39.0967 531.986 42.3202C534.861 45.5437 537.082 49.2903 538.65 53.56C540.217 57.8297 541 62.5347 541 67.6749C541 74.5582 539.737 80.7011 537.212 86.1039C534.687 91.5047 531.204 95.7734 526.764 98.9101C522.41 102.047 517.403 103.615 511.743 103.615ZM503.123 82.7047C504.952 82.7047 506.606 82.3129 508.085 81.5292C509.654 80.7455 511.003 79.6559 512.134 78.2604C513.266 76.8667 514.137 75.255 514.746 73.4251C515.356 71.5952 515.661 69.6351 515.661 67.5446C515.661 65.3673 515.313 63.4071 514.616 61.6641C514.007 59.9211 513.092 58.4397 511.873 57.2198C510.654 55.913 509.218 54.9112 507.565 54.2144C505.909 53.5176 504.081 53.1692 502.078 53.1692C500.946 53.1692 499.814 53.3429 498.681 53.6903C497.636 53.9528 496.635 54.3891 495.678 54.999C494.719 55.5221 493.761 56.2189 492.804 57.0895C491.932 57.96 491.105 59.0052 490.322 60.2251V72.1193C491.105 74.1229 492.15 75.9528 493.458 77.6089C494.851 79.1763 496.374 80.4396 498.027 81.3989C499.682 82.2695 501.381 82.7047 503.123 82.7047Z" fill="#333333"/>
</svg>
